<?xml version="1.0" standalone="no"?>
<!DOCTYPE svg PUBLIC "-//W3C//DTD SVG 20010904//EN"
 "http://www.w3.org/TR/2001/REC-SVG-20010904/DTD/svg10.dtd">
<svg version="1.0" xmlns="http://www.w3.org/2000/svg"
 width="700.000000pt" height="700.000000pt" viewBox="0 0 700.000000 700.000000"
 preserveAspectRatio="xMidYMid meet">
<metadata>
Created by potrace 1.11, written by Peter Selinger 2001-2013
</metadata>
<g transform="translate(0.000000,700.000000) scale(0.100000,-0.100000)"
fill="#000000" stroke="none">
<path d="M3400 6678 c-130 -14 -259 -63 -374 -140 -78 -53 -192 -168 -234
-238 l-33 -55 -102 -29 c-570 -161 -1112 -516 -1481 -971 -389 -478 -610
-1017 -674 -1637 -14 -145 -7 -576 12 -674 3 -12 7 -39 10 -60 48 -312 139
-600 281 -884 199 -401 471 -737 830 -1025 78 -63 299 -213 379 -257 80 -45
305 -152 371 -178 33 -12 74 -28 90 -35 106 -46 411 -122 598 -150 251 -36
581 -39 815 -5 128 18 148 21 262 47 292 64 631 196 854 331 37 23 70 42 71
42 4 0 151 99 205 139 154 112 352 294 480 441 36 41 68 77 71 80 13 11 149
199 195 270 223 342 397 795 449 1166 3 22 8 49 10 60 13 59 20 199 20 389 0
183 -10 388 -20 405 -1 3 -6 30 -9 61 -4 31 -8 65 -10 75 -95 468 -229 799
-472 1164 -173 260 -437 538 -690 726 -191 141 -432 278 -654 372 -93 39 -315
114 -375 126 -24 5 -38 20 -64 62 -76 128 -241 266 -391 327 -123 51 -278 71
-420 55z m193 -282 c88 -12 196 -62 265 -122 l32 -29 -65 -34 c-114 -58 -205
-181 -242 -324 -42 -166 31 -379 167 -484 l41 -31 -23 -16 c-50 -36 -179 -68
-270 -68 -158 0 -279 54 -411 183 -108 107 -128 110 -317 46 -256 -87 -489
-211 -680 -361 -36 -28 -71 -55 -78 -61 -46 -35 -250 -244 -307 -315 -169
-208 -318 -481 -397 -725 -30 -95 -76 -275 -84 -330 -3 -27 -8 -58 -10 -67
-19 -111 -26 -453 -11 -578 66 -552 300 -1030 687 -1409 119 -116 315 -265
451 -343 184 -106 473 -221 633 -252 11 -2 41 -9 66 -14 265 -60 628 -61 910
-1 52 11 106 22 119 25 111 23 319 103 484 185 456 228 841 634 1060 1119 60
132 145 410 161 527 3 22 8 52 11 65 19 83 28 462 14 573 -28 219 -51 331
-105 498 -40 122 -116 298 -168 387 -20 34 -36 63 -36 66 0 11 -142 214 -194
279 -290 356 -703 630 -1139 756 -56 16 -125 36 -154 44 -90 27 -153 111 -153
206 0 49 41 130 81 160 71 54 119 56 278 13 318 -87 640 -241 896 -427 39 -28
72 -54 75 -57 3 -3 30 -25 60 -50 432 -350 766 -878 904 -1430 20 -80 39 -161
42 -180 2 -19 6 -44 9 -55 4 -20 9 -56 24 -180 10 -76 7 -505 -4 -570 -65
-409 -141 -650 -302 -955 -368 -702 -1010 -1204 -1773 -1389 -124 -29 -140
-32 -274 -52 -268 -38 -594 -28 -891 26 -123 23 -395 105 -505 152 -190 82
-414 205 -555 307 -275 198 -551 489 -723 766 -198 317 -342 697 -387 1020 -3
25 -8 52 -10 60 -11 42 -20 215 -20 380 0 199 8 307 31 440 5 25 9 50 10 55 7
60 64 284 97 380 284 826 915 1446 1747 1715 63 20 140 43 170 50 82 19 122
43 150 90 101 169 158 228 274 285 107 53 211 69 339 51z m-661 -1163 c51 -56
136 -114 226 -155 225 -103 506 -95 726 20 60 31 175 117 194 143 18 26 27 25
145 -20 339 -127 611 -324 866 -626 92 -110 230 -346 293 -505 44 -111 99
-298 113 -385 25 -151 30 -209 30 -365 0 -177 -7 -271 -30 -385 -9 -44 -18
-91 -21 -105 -2 -14 -9 -36 -13 -50 -5 -14 -12 -38 -16 -55 -4 -16 -22 -73
-42 -125 -151 -406 -440 -765 -808 -1003 -326 -210 -713 -322 -1110 -321 -90
1 -218 10 -265 19 -14 3 -45 8 -70 11 -25 3 -96 19 -157 35 -553 141 -1037
528 -1295 1034 -69 136 -139 313 -163 418 -21 90 -45 223 -52 282 -10 88 -9
403 1 470 4 28 9 64 12 80 2 17 7 41 9 55 3 14 7 34 9 45 48 251 185 553 354
784 190 259 481 499 767 632 92 42 236 98 256 99 9 0 27 -12 41 -27z"/>
</g>
</svg>
